<svg width="15" height="16" viewBox="0 0 15 16" fill="none" xmlns="http://www.w3.org/2000/svg">
<path d="M13.5933 0.9375H1.40576C1.01514 0.9375 0.683105 1.07422 0.409668 1.34766C0.13623 1.62109 -0.000488281 1.95313 -0.000488281 2.34375V14.5312C-0.000488281 14.9219 0.13623 15.2539 0.409668 15.5273C0.683105 15.8008 1.01514 15.9375 1.40576 15.9375H13.5933C13.9839 15.9375 14.3159 15.8008 14.5894 15.5273C14.8628 15.2539 14.9995 14.9219 14.9995 14.5312V2.34375C14.9995 1.95313 14.8628 1.62109 14.5894 1.34766C14.3159 1.07422 13.9839 0.9375 13.5933 0.9375ZM10.312 3.28125C10.312 3.1543 10.356 3.04688 10.4438 2.95898C10.5415 2.86133 10.6538 2.8125 10.7808 2.8125H12.6558C12.7827 2.8125 12.8901 2.86133 12.978 2.95898C13.0757 3.04688 13.1245 3.1543 13.1245 3.28125V5.15625C13.1245 5.2832 13.0757 5.39551 12.978 5.49316C12.8901 5.58105 12.7827 5.625 12.6558 5.625H10.7808C10.6538 5.625 10.5415 5.58105 10.4438 5.49316C10.356 5.39551 10.312 5.2832 10.312 5.15625V3.28125ZM7.49951 5.625C8.271 5.625 8.93018 5.89844 9.47705 6.44531C10.0337 6.99219 10.312 7.65625 10.312 8.4375C10.312 9.20898 10.0386 9.87305 9.4917 10.4297C8.94482 10.9766 8.28076 11.25 7.49951 11.25C6.72803 11.25 6.06396 10.9766 5.50732 10.4297C4.96045 9.88281 4.68701 9.21875 4.68701 8.4375C4.68701 7.66602 4.96045 7.00684 5.50732 6.45996C6.0542 5.90332 6.71826 5.625 7.49951 5.625ZM13.1245 13.5938C13.1245 13.7207 13.0757 13.833 12.978 13.9307C12.8901 14.0186 12.7827 14.0625 12.6558 14.0625H2.34326C2.21631 14.0625 2.104 14.0186 2.00635 13.9307C1.91846 13.833 1.87451 13.7207 1.87451 13.5938V7.5H2.8999C2.87061 7.64648 2.84619 7.79785 2.82666 7.9541C2.81689 8.11035 2.81201 8.27148 2.81201 8.4375C2.81201 9.08203 2.93408 9.69238 3.17822 10.2686C3.42236 10.835 3.75439 11.333 4.17432 11.7627C4.604 12.1826 5.10205 12.5146 5.66846 12.7588C6.24463 13.0029 6.85498 13.125 7.49951 13.125C8.14404 13.125 8.74951 13.0029 9.31592 12.7588C9.89209 12.5146 10.3901 12.1826 10.8101 11.7627C11.2397 11.333 11.5767 10.835 11.8208 10.2686C12.0649 9.69238 12.187 9.08203 12.187 8.4375C12.187 8.28125 12.1772 8.125 12.1577 7.96875C12.1479 7.80273 12.1284 7.64648 12.0991 7.5H13.1245V13.5938Z" fill="#A5A5A5"/>
</svg>
