<svg width="95" height="25" viewBox="0 0 95 25" fill="none" xmlns="http://www.w3.org/2000/svg">
<path d="M10.78 24.62C9.02333 24.62 7.34933 24.0723 5.758 22.977C4.18733 21.861 2.92667 20.373 1.976 18.513C1.02533 16.653 0.55 14.6587 0.55 12.53C0.55 10.2153 1.00467 8.13833 1.914 6.299C2.82333 4.45967 4.06333 3.02333 5.634 1.99C7.20467 0.956665 8.951 0.439998 10.873 0.439998C11.9477 0.439998 13.1773 0.729332 14.562 1.308C15.9673 1.88666 16.949 2.548 17.507 3.292L17.972 0.966999H18.499V7.88H17.848C17.848 6.80533 17.5173 5.741 16.856 4.687C16.2153 3.633 15.3267 2.765 14.19 2.083C13.0533 1.401 11.803 1.06 10.439 1.06C9.03367 1.06 7.78333 1.556 6.688 2.548C5.59267 3.54 4.735 4.904 4.115 6.64C3.495 8.35533 3.185 10.2773 3.185 12.406C3.185 14.452 3.48467 16.3637 4.084 18.141C4.704 19.8977 5.634 21.3133 6.874 22.388C8.13467 23.4627 9.664 24 11.462 24C12.7847 24 13.9937 23.6177 15.089 22.853C16.1843 22.0883 17.0007 21.0963 17.538 19.877C17.6 19.7323 17.724 19.3087 17.91 18.606C18.0547 17.986 18.1993 17.4693 18.344 17.056C18.5093 16.622 18.7263 16.2397 18.995 15.909H19.429C19.0983 16.1983 18.8607 16.7357 18.716 17.521C18.592 18.3063 18.53 19.3913 18.53 20.776C18.53 21.272 18.127 21.83 17.321 22.45C16.5357 23.0493 15.5333 23.566 14.314 24C13.1153 24.4133 11.9373 24.62 10.78 24.62ZM33.122 16.994C32.8327 17.2627 32.6364 17.6863 32.533 18.265C32.4504 18.8437 32.409 19.7013 32.409 20.838V24H20.04V23.225C20.4327 23.349 20.7944 23.411 21.125 23.411C21.5177 23.411 21.8174 23.3077 22.024 23.101C22.2514 22.8737 22.365 22.5533 22.365 22.14V2.92C22.365 2.50667 22.2514 2.19667 22.024 1.99C21.8174 1.76267 21.5177 1.649 21.125 1.649C20.7944 1.649 20.4327 1.711 20.04 1.835V1.06H27.015V1.835C26.6224 1.711 26.2607 1.649 25.93 1.649C25.5374 1.649 25.2274 1.76267 25 1.99C24.7934 2.19667 24.69 2.50667 24.69 2.92V20.125C24.69 21.3443 24.8967 22.2433 25.31 22.822C25.7234 23.4007 26.4467 23.69 27.48 23.69C28.6374 23.69 29.5054 23.535 30.084 23.225C30.6627 22.8943 31.045 22.4913 31.231 22.016C31.417 21.52 31.572 20.8277 31.696 19.939C31.7787 19.257 31.8717 18.699 31.975 18.265C32.0784 17.831 32.2644 17.4073 32.533 16.994H33.122ZM49.5184 22.76C49.663 23.2973 50.035 23.566 50.6344 23.566C51.027 23.566 51.5437 23.4523 52.1844 23.225V24H44.7134V23.225C45.3127 23.4317 45.8294 23.535 46.2634 23.535C46.7594 23.535 47.0074 23.3593 47.0074 23.008C47.0074 22.9047 46.997 22.822 46.9764 22.76L44.1864 13.925H37.6144C36.8704 16.405 36.1574 18.885 35.4754 21.365L35.2584 22.14C35.217 22.264 35.1964 22.419 35.1964 22.605C35.1964 23.2043 35.5684 23.504 36.3124 23.504C36.7257 23.504 37.201 23.411 37.7384 23.225V24H31.2594V23.225C31.7554 23.411 32.2307 23.504 32.6854 23.504C33.3054 23.504 33.7497 23.256 34.0184 22.76C34.163 22.4707 34.287 22.171 34.3904 21.861L40.9624 0.439998H42.7604L49.5184 22.76ZM37.7694 13.367H44.0004L40.7764 3.199L37.7694 13.367ZM58.9351 24.62C57.4264 24.62 56.2174 24.372 55.3081 23.876C54.4194 23.3593 53.6444 22.5947 52.9831 21.582L52.5491 23.411H51.9291V14.979H52.7661C52.7661 17.7897 53.2518 20.0113 54.2231 21.644C55.2151 23.2767 56.6824 24.093 58.6251 24.093C59.5344 24.093 60.3301 23.845 61.0121 23.349C61.6941 22.8323 62.2108 22.1607 62.5621 21.334C62.9134 20.5073 63.0891 19.629 63.0891 18.699C63.0891 17.5623 62.8308 16.622 62.3141 15.878C61.8181 15.1133 61.1981 14.514 60.4541 14.08C59.7101 13.646 58.7284 13.1707 57.5091 12.654C56.2484 12.1167 55.2461 11.631 54.5021 11.197C53.7581 10.7423 53.1278 10.143 52.6111 9.399C52.1151 8.63433 51.8671 7.67333 51.8671 6.516C51.8671 5.35867 52.1358 4.315 52.6731 3.385C53.2311 2.455 53.9751 1.73167 54.9051 1.215C55.8558 0.698332 56.9201 0.439998 58.0981 0.439998C58.8214 0.439998 59.5344 0.563999 60.2371 0.811999C60.9604 1.06 61.5701 1.38033 62.0661 1.773C62.5621 2.145 62.8618 2.517 62.9651 2.889L63.3061 0.501999H63.8951V6.671H63.1821C63.1821 5.741 63.0168 4.85233 62.6861 4.005C62.3554 3.15767 61.8388 2.46533 61.1361 1.928C60.4541 1.39067 59.6068 1.122 58.5941 1.122C57.2921 1.122 56.2278 1.556 55.4011 2.424C54.5951 3.292 54.1921 4.501 54.1921 6.051C54.1921 6.93967 54.4194 7.694 54.8741 8.314C55.3288 8.91333 55.8868 9.40933 56.5481 9.802C57.2301 10.1947 58.1394 10.6493 59.2761 11.166C60.5988 11.7653 61.6631 12.3233 62.4691 12.84C63.2958 13.336 63.9881 14.018 64.5461 14.886C65.1248 15.7333 65.4141 16.7977 65.4141 18.079C65.4141 19.1123 65.1144 20.1457 64.5151 21.179C63.9158 22.1917 63.1201 23.0183 62.1281 23.659C61.1361 24.2997 60.0718 24.62 58.9351 24.62ZM74.3455 24.62C72.8368 24.62 71.6278 24.372 70.7185 23.876C69.8298 23.3593 69.0548 22.5947 68.3935 21.582L67.9595 23.411H67.3395V14.979H68.1765C68.1765 17.7897 68.6622 20.0113 69.6335 21.644C70.6255 23.2767 72.0928 24.093 74.0355 24.093C74.9448 24.093 75.7405 23.845 76.4225 23.349C77.1045 22.8323 77.6212 22.1607 77.9725 21.334C78.3238 20.5073 78.4995 19.629 78.4995 18.699C78.4995 17.5623 78.2412 16.622 77.7245 15.878C77.2285 15.1133 76.6085 14.514 75.8645 14.08C75.1205 13.646 74.1388 13.1707 72.9195 12.654C71.6588 12.1167 70.6565 11.631 69.9125 11.197C69.1685 10.7423 68.5382 10.143 68.0215 9.399C67.5255 8.63433 67.2775 7.67333 67.2775 6.516C67.2775 5.35867 67.5462 4.315 68.0835 3.385C68.6415 2.455 69.3855 1.73167 70.3155 1.215C71.2662 0.698332 72.3305 0.439998 73.5085 0.439998C74.2318 0.439998 74.9448 0.563999 75.6475 0.811999C76.3708 1.06 76.9805 1.38033 77.4765 1.773C77.9725 2.145 78.2722 2.517 78.3755 2.889L78.7165 0.501999H79.3055V6.671H78.5925C78.5925 5.741 78.4272 4.85233 78.0965 4.005C77.7658 3.15767 77.2492 2.46533 76.5465 1.928C75.8645 1.39067 75.0172 1.122 74.0045 1.122C72.7025 1.122 71.6382 1.556 70.8115 2.424C70.0055 3.292 69.6025 4.501 69.6025 6.051C69.6025 6.93967 69.8298 7.694 70.2845 8.314C70.7392 8.91333 71.2972 9.40933 71.9585 9.802C72.6405 10.1947 73.5498 10.6493 74.6865 11.166C76.0092 11.7653 77.0735 12.3233 77.8795 12.84C78.7062 13.336 79.3985 14.018 79.9565 14.886C80.5352 15.7333 80.8245 16.7977 80.8245 18.079C80.8245 19.1123 80.5248 20.1457 79.9255 21.179C79.3262 22.1917 78.5305 23.0183 77.5385 23.659C76.5465 24.2997 75.4822 24.62 74.3455 24.62ZM82.3779 23.225C82.7706 23.349 83.1322 23.411 83.4629 23.411C83.8556 23.411 84.1552 23.3077 84.3619 23.101C84.5892 22.8737 84.7029 22.5533 84.7029 22.14V2.92C84.7029 2.50667 84.5892 2.19667 84.3619 1.99C84.1552 1.76267 83.8556 1.649 83.4629 1.649C83.1322 1.649 82.7706 1.711 82.3779 1.835V1.06H89.3529V1.835C88.9602 1.711 88.5986 1.649 88.2679 1.649C87.8752 1.649 87.5652 1.76267 87.3379 1.99C87.1312 2.19667 87.0279 2.50667 87.0279 2.92V22.14C87.0279 22.5533 87.1312 22.8737 87.3379 23.101C87.5652 23.3077 87.8752 23.411 88.2679 23.411C88.5986 23.411 88.9602 23.349 89.3529 23.225V24H82.3779V23.225ZM93.3732 24.31C92.9805 24.31 92.6189 24.1757 92.2882 23.907C91.9782 23.6383 91.8232 23.3077 91.8232 22.915C91.8232 22.543 91.9782 22.2227 92.2882 21.954C92.6189 21.6647 92.9805 21.52 93.3732 21.52C93.7659 21.52 94.1172 21.6647 94.4272 21.954C94.7579 22.2227 94.9232 22.543 94.9232 22.915C94.9232 23.3077 94.7579 23.6383 94.4272 23.907C94.1172 24.1757 93.7659 24.31 93.3732 24.31Z" fill="white"/>
</svg>
