<svg width="16" height="17" viewBox="0 0 16 17" fill="none" xmlns="http://www.w3.org/2000/svg">
<path d="M2.28467 2.69531C3.83154 1.14844 5.69482 0.375 7.87451 0.375C10.0542 0.375 11.9058 1.14844 13.4292 2.69531C14.9761 4.21875 15.7495 6.07031 15.7495 8.25C15.7495 10.4297 14.9761 12.293 13.4292 13.8398C11.9058 15.3633 10.0542 16.125 7.87451 16.125C7.07764 16.125 6.32764 16.0195 5.62451 15.8086C6.04639 15.0586 6.31592 14.4961 6.43311 14.1211L6.99561 11.9414C7.34717 12.5977 7.97998 12.9258 8.89404 12.9258C10.1597 12.9258 11.1792 12.4219 11.9526 11.4141C12.7495 10.4062 13.1479 9.11719 13.1479 7.54688C13.1479 6.32812 12.6792 5.27344 11.7417 4.38281C10.8042 3.46875 9.60889 3.01172 8.15576 3.01172C6.42139 3.01172 5.05029 3.52734 4.04248 4.55859C3.03467 5.56641 2.53076 6.69141 2.53076 7.93359C2.53076 9.50391 3.06982 10.5117 4.14795 10.957C4.35889 11.0508 4.49951 10.9805 4.56982 10.7461C4.56982 10.6992 4.58154 10.5938 4.60498 10.4297C4.65186 10.2656 4.68701 10.1602 4.71045 10.1133C4.75732 9.97266 4.72217 9.83203 4.60498 9.69141C4.25342 9.26953 4.07764 8.75391 4.07764 8.14453C4.07764 7.11328 4.4292 6.23438 5.13232 5.50781C5.85889 4.75781 6.79639 4.38281 7.94482 4.38281C8.97607 4.38281 9.78467 4.66406 10.3706 5.22656C10.9565 5.76562 11.2495 6.48047 11.2495 7.37109C11.2495 8.54297 11.0151 9.53906 10.5464 10.3594C10.0776 11.1562 9.47998 11.5547 8.75342 11.5547C8.33154 11.5547 7.9917 11.4141 7.73389 11.1328C7.47607 10.8281 7.39404 10.4648 7.48779 10.043C7.53467 9.80859 7.6167 9.49219 7.73389 9.09375C7.87451 8.69531 7.97998 8.34375 8.05029 8.03906C8.14404 7.73438 8.19092 7.47656 8.19092 7.26562C8.19092 6.9375 8.09717 6.65625 7.90967 6.42188C7.72217 6.1875 7.46436 6.07031 7.13623 6.07031C6.71436 6.07031 6.35107 6.26953 6.04639 6.66797C5.76514 7.04297 5.62451 7.52344 5.62451 8.10938C5.62451 8.32031 5.64795 8.53125 5.69482 8.74219C5.7417 8.95312 5.78857 9.11719 5.83545 9.23438L5.87061 9.375C5.28467 11.8125 4.94482 13.2422 4.85107 13.6641C4.71045 14.2266 4.66357 14.8242 4.71045 15.457C3.3042 14.8242 2.16748 13.8633 1.30029 12.5742C0.433105 11.2852 -0.000488281 9.84375 -0.000488281 8.25C-0.000488281 6.07031 0.76123 4.21875 2.28467 2.69531Z" fill="#A5A5A5"/>
</svg>
