<svg width="17" height="14" viewBox="0 0 17 14" fill="none" xmlns="http://www.w3.org/2000/svg">
<path d="M16.5933 2.11719C16.1714 2.77344 15.6089 3.35937 14.9058 3.875V4.29688C14.9058 6.75781 14.0151 8.99609 12.2339 11.0117C10.4761 13.0039 8.13232 14 5.20264 14C3.32764 14 1.59326 13.4844 -0.000488281 12.4531C0.374512 12.5 0.644043 12.5234 0.808105 12.5234C2.37842 12.5234 3.78467 12.0312 5.02686 11.0469C4.30029 11.0234 3.64404 10.8008 3.05811 10.3789C2.47217 9.93359 2.07373 9.37109 1.86279 8.69141C2.14404 8.73828 2.35498 8.76172 2.49561 8.76172C2.72998 8.76172 3.03467 8.71484 3.40967 8.62109C2.63623 8.45703 1.97998 8.07031 1.44092 7.46094C0.925293 6.82812 0.66748 6.10156 0.66748 5.28125V5.24609C1.18311 5.52734 1.69873 5.66797 2.21436 5.66797C1.20654 5.01172 0.702637 4.0625 0.702637 2.82031C0.702637 2.23437 0.85498 1.67187 1.15967 1.13281C2.96436 3.35937 5.29639 4.54297 8.15576 4.68359C8.10889 4.51953 8.08545 4.26172 8.08545 3.91016C8.08545 2.94922 8.41357 2.14063 9.06982 1.48438C9.72607 0.828125 10.5347 0.5 11.4956 0.5C12.4565 0.5 13.2769 0.863281 13.9565 1.58984C14.6597 1.47266 15.3862 1.19141 16.1362 0.746094C15.9019 1.56641 15.3979 2.19922 14.6245 2.64453C15.3511 2.57422 16.0073 2.39844 16.5933 2.11719Z" fill="#A5A5A5"/>
</svg>
