<svg width="18" height="14" viewBox="0 0 18 14" fill="none" xmlns="http://www.w3.org/2000/svg">
<path d="M17.894 3.48828C17.9644 4.75391 17.9995 6.00781 17.9995 7.25C17.9995 8.49219 17.9644 9.74609 17.894 11.0117C17.894 11.8086 17.6362 12.4883 17.1206 13.0508C16.6284 13.5898 16.019 13.8594 15.2925 13.8594C13.4878 13.9531 11.3901 14 8.99951 14C6.60889 14 4.51123 13.9531 2.70654 13.8594C1.97998 13.8594 1.35889 13.5898 0.843262 13.0508C0.351074 12.4883 0.10498 11.8086 0.10498 11.0117C0.034668 9.74609 -0.000488281 8.49219 -0.000488281 7.25C-0.000488281 6.42969 0.0463867 5.17578 0.140137 3.48828C0.140137 2.69141 0.38623 2.02344 0.878418 1.48438C1.37061 0.921875 1.97998 0.640625 2.70654 0.640625C4.41748 0.546875 6.40967 0.5 8.68311 0.5H8.99951H9.31592C11.5894 0.5 13.5815 0.546875 15.2925 0.640625C16.019 0.640625 16.6284 0.921875 17.1206 1.48438C17.6362 2.02344 17.894 2.69141 17.894 3.48828ZM7.27686 10.6953L12.3745 7.25L7.27686 3.76953V10.6953Z" fill="#A5A5A5"/>
</svg>
